HIERARCHY
ROOT mixamorig:Hips
{
	OFFSET 0.000000 77.627144 7.190781
	CHANNELS 6 Xposition Yposition Zposition Xrotation Yrotation Zrotation
	JOINT mixamorig:Spine
	{
		OFFSET 0.000000 14.685707 -1.734714
		CHANNELS 3 Xrotation Yrotation Zrotation
		JOINT mixamorig:Spine1
		{
			OFFSET 0.000000 17.133331 -2.023833
			CHANNELS 3 Xrotation Yrotation Zrotation
			JOINT mixamorig:Spine2
			{
				OFFSET 0.000000 19.580948 -2.312953
				CHANNELS 3 Xrotation Yrotation Zrotation
				JOINT mixamorig:Neck
				{
					OFFSET 0.000000 22.028564 -2.602070
					CHANNELS 3 Xrotation Yrotation Zrotation
					JOINT mixamorig:Head
					{
						OFFSET 0.000000 7.772293 1.167654
						CHANNELS 3 Xrotation Yrotation Zrotation
						JOINT mixamorig:HeadTop_End
						{
							OFFSET 0.000000 26.518158 3.983897
							CHANNELS 3 Xrotation Yrotation Zrotation
							End Site
							{
								OFFSET 0.000000 26.815750 0.000000
							}
						}
					}
				}
				JOINT mixamorig:LeftShoulder
				{
					OFFSET 11.646637 18.513367 -2.583829
					CHANNELS 3 Xrotation Yrotation Zrotation
					JOINT mixamorig:LeftArm
					{
						OFFSET 23.494797 -6.787735 0.036483
						CHANNELS 3 Xrotation Yrotation Zrotation
						JOINT mixamorig:LeftForeArm
						{
							OFFSET 22.628841 -2.236465 0.895561
							CHANNELS 3 Xrotation Yrotation Zrotation
							JOINT mixamorig:LeftHand
							{
								OFFSET 32.235813 0.214081 0.341628
								CHANNELS 3 Xrotation Yrotation Zrotation
								JOINT mixamorig:LeftHandThumb1
								{
									OFFSET 4.043732 -2.301453 4.675424
									CHANNELS 3 Xrotation Yrotation Zrotation
									JOINT mixamorig:LeftHandThumb2
									{
										OFFSET 3.235001 -1.841141 3.740334
										CHANNELS 3 Xrotation Yrotation Zrotation
										JOINT mixamorig:LeftHandThumb3
										{
											OFFSET 4.136284 -1.355438 2.884997
											CHANNELS 3 Xrotation Yrotation Zrotation
											JOINT mixamorig:LeftHandThumb4
											{
												OFFSET 3.443222 -1.440781 1.895251
												CHANNELS 3 Xrotation Yrotation Zrotation
												End Site
												{
													OFFSET 3.082619 -1.455811 2.429330
												}
											}
										}
									}
								}
								JOINT mixamorig:LeftHandIndex1
								{
									OFFSET 12.534279 0.552322 5.370454
									CHANNELS 3 Xrotation Yrotation Zrotation
									JOINT mixamorig:LeftHandIndex2
									{
										OFFSET 4.462021 -0.042068 -0.222766
										CHANNELS 3 Xrotation Yrotation Zrotation
										JOINT mixamorig:LeftHandIndex3
										{
											OFFSET 4.426414 -0.140015 -0.221126
											CHANNELS 3 Xrotation Yrotation Zrotation
											JOINT mixamorig:LeftHandIndex4
											{
												OFFSET 3.584976 -0.033737 -0.180877
												CHANNELS 3 Xrotation Yrotation Zrotation
												End Site
												{
													OFFSET 3.584984 -0.033707 -0.180676
												}
											}
										}
									}
								}
								JOINT mixamorig:LeftHandMiddle1
								{
									OFFSET 12.067444 0.830978 1.411757
									CHANNELS 3 Xrotation Yrotation Zrotation
									JOINT mixamorig:LeftHandMiddle2
									{
										OFFSET 5.488625 0.110443 -0.140360
										CHANNELS 3 Xrotation Yrotation Zrotation
										JOINT mixamorig:LeftHandMiddle3
										{
											OFFSET 5.193268 -0.285706 -0.132956
											CHANNELS 3 Xrotation Yrotation Zrotation
											JOINT mixamorig:LeftHandMiddle4
											{
												OFFSET 4.443779 -0.316895 -0.113542
												CHANNELS 3 Xrotation Yrotation Zrotation
												End Site
												{
													OFFSET 4.443962 -0.316620 -0.107084
												}
											}
										}
									}
								}
								JOINT mixamorig:LeftHandRing1
								{
									OFFSET 12.202324 0.602158 -2.428782
									CHANNELS 3 Xrotation Yrotation Zrotation
									JOINT mixamorig:LeftHandRing2
									{
										OFFSET 4.681709 0.293594 -0.070412
										CHANNELS 3 Xrotation Yrotation Zrotation
										JOINT mixamorig:LeftHandRing3
										{
											OFFSET 4.517784 0.001785 -0.067170
											CHANNELS 3 Xrotation Yrotation Zrotation
											JOINT mixamorig:LeftHandRing4
											{
												OFFSET 3.536186 -0.473984 -0.050865
												CHANNELS 3 Xrotation Yrotation Zrotation
												End Site
												{
													OFFSET 3.536438 -0.473450 -0.036327
												}
											}
										}
									}
								}
								JOINT mixamorig:LeftHandPinky1
								{
									OFFSET 11.261032 -0.021225 -5.740205
									CHANNELS 3 Xrotation Yrotation Zrotation
									JOINT mixamorig:LeftHandPinky2
									{
										OFFSET 4.446136 0.226913 -0.056313
										CHANNELS 3 Xrotation Yrotation Zrotation
										JOINT mixamorig:LeftHandPinky3
										{
											OFFSET 3.536148 0.035980 -0.044635
											CHANNELS 3 Xrotation Yrotation Zrotation
											JOINT mixamorig:LeftHandPinky4
											{
												OFFSET 2.822449 0.069366 -0.035670
												CHANNELS 3 Xrotation Yrotation Zrotation
												End Site
												{
													OFFSET 2.822449 0.069397 -0.035034
												}
											}
										}
									}
								}
							}
						}
					}
				}
				JOINT mixamorig:RightShoulder
				{
					OFFSET -11.646637 18.513367 -2.620312
					CHANNELS 3 Xrotation Yrotation Zrotation
					JOINT mixamorig:RightArm
					{
						OFFSET -23.494804 -6.787735 -0.036485
						CHANNELS 3 Xrotation Yrotation Zrotation
						JOINT mixamorig:RightForeArm
						{
							OFFSET -22.628826 -2.236481 0.960591
							CHANNELS 3 Xrotation Yrotation Zrotation
							JOINT mixamorig:RightHand
							{
								OFFSET -32.235806 0.214096 0.317908
								CHANNELS 3 Xrotation Yrotation Zrotation
								JOINT mixamorig:RightHandThumb1
								{
									OFFSET -4.056908 -2.304855 4.721249
									CHANNELS 3 Xrotation Yrotation Zrotation
									JOINT mixamorig:RightHandThumb2
									{
										OFFSET -3.245529 -1.843887 3.777003
										CHANNELS 3 Xrotation Yrotation Zrotation
										JOINT mixamorig:RightHandThumb3
										{
											OFFSET -4.153908 -1.359879 2.907515
											CHANNELS 3 Xrotation Yrotation Zrotation
											JOINT mixamorig:RightHandThumb4
											{
												OFFSET -3.491310 -1.375549 1.529044
												CHANNELS 3 Xrotation Yrotation Zrotation
												End Site
												{
													OFFSET -3.035126 -1.400162 2.290608
												}
											}
										}
									}
								}
								JOINT mixamorig:RightHandIndex1
								{
									OFFSET -12.331047 0.757294 5.317495
									CHANNELS 3 Xrotation Yrotation Zrotation
									JOINT mixamorig:RightHandIndex2
									{
										OFFSET -4.758568 -0.224289 -0.035605
										CHANNELS 3 Xrotation Yrotation Zrotation
										JOINT mixamorig:RightHandIndex3
										{
											OFFSET -4.415932 -0.181503 -0.033052
											CHANNELS 3 Xrotation Yrotation Zrotation
											JOINT mixamorig:RightHandIndex4
											{
												OFFSET -3.678474 0.414856 -0.027373
												CHANNELS 3 Xrotation Yrotation Zrotation
												End Site
												{
													OFFSET -3.678375 0.414001 -0.046045
												}
											}
										}
									}
								}
								JOINT mixamorig:RightHandMiddle1
								{
									OFFSET -12.051239 0.663742 1.548264
									CHANNELS 3 Xrotation Yrotation Zrotation
									JOINT mixamorig:RightHandMiddle2
									{
										OFFSET -5.374817 0.301971 -0.166537
										CHANNELS 3 Xrotation Yrotation Zrotation
										JOINT mixamorig:RightHandMiddle3
										{
											OFFSET -5.310471 -0.301758 -0.164593
											CHANNELS 3 Xrotation Yrotation Zrotation
											JOINT mixamorig:RightHandMiddle4
											{
												OFFSET -4.485832 -0.342514 -0.139207
												CHANNELS 3 Xrotation Yrotation Zrotation
												End Site
												{
													OFFSET -4.486198 -0.342010 -0.127963
												}
											}
										}
									}
								}
								JOINT mixamorig:RightHandRing1
								{
									OFFSET -12.195183 0.742325 -2.381488
									CHANNELS 3 Xrotation Yrotation Zrotation
									JOINT mixamorig:RightHandRing2
									{
										OFFSET -4.583191 0.034424 -0.012763
										CHANNELS 3 Xrotation Yrotation Zrotation
										JOINT mixamorig:RightHandRing3
										{
											OFFSET -4.612793 0.026199 -0.012632
											CHANNELS 3 Xrotation Yrotation Zrotation
											JOINT mixamorig:RightHandRing4
											{
												OFFSET -3.314957 -0.541855 -0.006643
												CHANNELS 3 Xrotation Yrotation Zrotation
												End Site
												{
													OFFSET -3.315063 -0.541092 0.010116
												}
											}
										}
									}
								}
								JOINT mixamorig:RightHandPinky1
								{
									OFFSET -11.332825 -0.054398 -5.574547
									CHANNELS 3 Xrotation Yrotation Zrotation
									JOINT mixamorig:RightHandPinky2
									{
										OFFSET -4.462639 0.300003 -0.206312
										CHANNELS 3 Xrotation Yrotation Zrotation
										JOINT mixamorig:RightHandPinky3
										{
											OFFSET -3.493774 0.049591 -0.161451
											CHANNELS 3 Xrotation Yrotation Zrotation
											JOINT mixamorig:RightHandPinky4
											{
												OFFSET -2.793701 0.056946 -0.129098
												CHANNELS 3 Xrotation Yrotation Zrotation
												End Site
												{
													OFFSET -2.793793 0.057053 -0.126857
												}
											}
										}
									}
								}
							}
						}
					}
				}
			}
		}
	}
	JOINT mixamorig:LeftUpLeg
	{
		OFFSET 13.580879 -8.149223 -1.796077
		CHANNELS 3 Xrotation Yrotation Zrotation
		JOINT mixamorig:LeftLeg
		{
			OFFSET 3.676140 -35.802425 -2.676071
			CHANNELS 3 Xrotation Yrotation Zrotation
			JOINT mixamorig:LeftFoot
			{
				OFFSET -0.369089 -26.709160 -2.057140
				CHANNELS 3 Xrotation Yrotation Zrotation
				JOINT mixamorig:LeftToeBase
				{
					OFFSET -1.192477 -6.581660 13.403662
					CHANNELS 3 Xrotation Yrotation Zrotation
					JOINT mixamorig:LeftToe_End
					{
						OFFSET -0.351336 -0.163913 5.937977
						CHANNELS 3 Xrotation Yrotation Zrotation
						End Site
						{
							OFFSET -0.351338 -0.163913 5.937977
						}
					}
				}
			}
		}
	}
	JOINT mixamorig:RightUpLeg
	{
		OFFSET -13.580879 -8.149223 -2.255285
		CHANNELS 3 Xrotation Yrotation Zrotation
		JOINT mixamorig:RightLeg
		{
			OFFSET -3.676140 -35.802425 -2.316821
			CHANNELS 3 Xrotation Yrotation Zrotation
			JOINT mixamorig:RightFoot
			{
				OFFSET 0.369059 -26.709040 -2.090143
				CHANNELS 3 Xrotation Yrotation Zrotation
				JOINT mixamorig:RightToeBase
				{
					OFFSET 1.192393 -6.582436 13.372205
					CHANNELS 3 Xrotation Yrotation Zrotation
					JOINT mixamorig:RightToe_End
					{
						OFFSET 0.351307 -0.164255 5.913618
						CHANNELS 3 Xrotation Yrotation Zrotation
						End Site
						{
							OFFSET 0.351309 -0.164255 5.913618
						}
					}
				}
			}
		}
	}
}
MOTION
Frames: 4
Frame Time: 0.016667
7.428071 76.420128 2.864820 -5.420556 -12.178548 -6.183543 0.141613 -0.087300 0.584542 0.648415 0.493586 5.531539 0.642375 1.004613 5.432183 7.043890 -2.655889 -1.899268 26.126264 -12.141512 3.934432 -0.000000 -0.000001 -0.000000 0.473751 -11.748244 -10.826588 49.855866 -16.321896 -58.942955 -48.993821 -82.656900 -49.683537 8.377206 -32.437928 37.074274 -35.388368 6.310046 20.284301 -0.303273 18.823175 -10.565153 -3.138305 9.292926 3.593841 -0.000000 0.000004 -0.000001 1.101037 -16.563745 -12.581459 -0.599735 1.826415 -15.662331 -0.568845 0.391854 -11.449505 -0.000000 0.000000 0.000000 -0.183654 -3.769000 -8.533516 -0.288313 2.255388 -21.223939 -0.128565 0.953803 -11.471543 -0.000000 -0.000002 -0.000000 0.433368 0.594017 -10.463595 0.028225 1.268088 -14.472500 0.145194 0.444878 -1.021960 0.000002 0.000001 -0.000004 0.615787 9.969535 -6.668007 -0.198577 0.549754 -11.126310 -0.048236 1.098209 -5.389491 0.000003 -0.000002 -0.000003 0.544567 4.353692 14.830279 59.428165 1.497192 39.181606 -110.616833 84.060641 110.966689 -1.943014 31.408027 -31.537104 -12.904504 -10.397708 -22.018411 -1.134421 -13.310392 13.783011 -4.121045 -2.390137 -1.694910 -0.000002 0.000002 0.000004 7.404534 12.010647 28.859308 0.041772 -1.254992 10.092324 -0.465586 0.459827 22.622644 -0.000000 -0.000001 -0.000002 -0.149176 2.981335 19.978440 -0.496560 -1.946061 20.260436 -0.337626 -0.792330 15.166510 0.000001 0.000002 0.000003 0.733031 -2.769600 9.774170 0.498726 -1.495217 29.065604 -0.319891 0.981979 8.180402 0.000001 -0.000000 -0.000006 -3.262992 -11.932616 -6.184430 -0.956099 -0.830201 19.541163 -0.715590 1.888761 6.607648 -0.000000 0.000002 0.000001 -12.261369 14.270516 9.997192 33.428056 10.938364 -0.337285 -16.404637 15.441280 -3.598677 -2.067457 -0.000012 -0.000005 0.000000 -0.000003 -0.000001 8.205494 -3.278669 11.817773 3.701328 9.697314 2.679162 -7.690215 -17.808654 -12.949433 -2.177565 -0.000011 0.000002 0.000001 0.000000 0.000001 
7.206510 76.310028 2.797634 -5.525965 -12.669525 -6.640143 0.154755 -0.183046 0.833686 0.662780 0.473901 5.578773 0.655997 0.985290 5.479696 6.982834 -2.571669 -1.949237 25.959871 -11.770283 3.486956 -0.000000 0.000001 0.000001 0.473748 -11.748244 -10.826570 49.855890 -16.321905 -58.942948 -49.253566 -82.685259 -49.941100 8.020726 -32.308895 36.428138 -35.388399 6.310050 20.284286 -0.303257 18.823173 -10.565151 -3.138297 9.292928 3.593843 -0.000002 0.000001 0.000000 1.098059 -16.557328 -12.654716 -0.599747 1.826419 -15.662343 -0.568812 0.391862 -11.449513 -0.000001 -0.000000 -0.000001 -0.189008 -3.761243 -8.644525 -0.288306 2.255383 -21.223962 -0.128583 0.953805 -11.471560 -0.000000 -0.000002 -0.000001 0.436417 0.600419 -10.574452 0.028238 1.268115 -14.472611 0.145182 0.444851 -1.021971 -0.000000 -0.000002 0.000001 0.615989 9.969114 -6.664338 -0.198567 0.549755 -11.126307 -0.048226 1.098208 -5.389483 -0.000000 -0.000002 -0.000001 0.544571 4.353693 14.830272 59.428253 1.482323 39.172040 -110.658757 84.058988 111.008401 -1.989419 31.431731 -31.511546 -12.904499 -10.397687 -22.018404 -1.134422 -13.310413 13.783017 -4.121042 -2.390110 -1.694917 -0.000002 0.000000 0.000005 7.404541 12.010646 28.859298 0.041774 -1.255012 10.092331 -0.465607 0.459821 22.622655 -0.000001 0.000001 -0.000005 -0.149180 2.981344 19.978416 -0.496525 -1.946071 20.260452 -0.337633 -0.792340 15.166514 -0.000000 -0.000000 -0.000000 0.733050 -2.769616 9.774167 0.498717 -1.495202 29.065597 -0.319889 0.981977 8.180384 -0.000001 0.000003 -0.000001 -3.262983 -11.932619 -6.184437 -0.956100 -0.830191 19.541152 -0.715599 1.888759 6.607632 0.000001 -0.000002 0.000002 -12.800157 14.549515 10.974583 34.573287 10.932337 -0.367833 -16.922752 15.408427 -4.017346 -2.077344 -0.000001 -0.000004 0.000000 0.000004 -0.000000 8.089459 -3.183361 12.230599 3.998513 9.667890 3.017349 -7.791537 -17.318254 -13.336732 -2.287477 0.000010 0.000001 0.000001 0.000002 0.000001 
6.994112 76.199905 2.740325 -5.641834 -13.144174 -7.071742 0.186403 -0.287366 1.069061 0.681760 0.452433 5.625656 0.674222 0.964131 5.526884 6.909789 -2.493901 -1.998121 25.787885 -11.427442 3.051650 -0.000001 0.000000 -0.000001 0.473747 -11.748232 -10.826611 49.855873 -16.321929 -58.942968 -49.495154 -82.711337 -50.180676 7.682062 -32.179046 35.553993 -35.388371 6.310046 20.284296 -0.303265 18.823168 -10.565165 -3.138291 9.292928 3.593853 -0.000000 0.000006 -0.000001 1.095056 -16.550844 -12.728862 -0.599713 1.826435 -15.662329 -0.568837 0.391870 -11.449500 0.000001 0.000001 0.000002 -0.194372 -3.753444 -8.756868 -0.288340 2.255376 -21.224027 -0.128554 0.953817 -11.471552 -0.000000 0.000001 -0.000001 0.439520 0.606883 -10.686662 0.028233 1.268123 -14.472727 0.145181 0.444871 -1.021988 0.000000 -0.000001 0.000001 0.616199 9.968684 -6.660998 -0.198578 0.549736 -11.126324 -0.048243 1.098210 -5.389491 0.000000 0.000002 -0.000002 0.544571 4.353678 14.830209 59.428349 1.469796 39.163977 -110.697415 84.057519 111.046937 -2.028551 31.451672 -31.490020 -12.904510 -10.397699 -22.018416 -1.134417 -13.310422 13.783023 -4.121055 -2.390107 -1.694922 -0.000000 0.000005 0.000004 7.404551 12.010664 28.859294 0.041781 -1.254995 10.092317 -0.465618 0.459835 22.622659 0.000000 -0.000000 -0.000001 -0.149174 2.981345 19.978426 -0.496565 -1.946071 20.260440 -0.337640 -0.792346 15.166531 -0.000000 -0.000000 -0.000002 0.733046 -2.769596 9.774173 0.498742 -1.495215 29.065587 -0.319879 0.981987 8.180390 0.000000 0.000002 -0.000006 -3.263010 -11.932602 -6.184438 -0.956072 -0.830206 19.541159 -0.715620 1.888763 6.607634 0.000001 -0.000000 0.000001 -13.281340 14.808270 11.889227 35.636871 10.928938 -0.369756 -17.405598 15.393209 -4.434188 -2.055794 -0.000005 -0.000001 0.000000 -0.000001 -0.000001 7.961259 -3.134496 12.600844 4.388365 9.628640 3.355231 -7.949798 -16.792821 -13.714650 -2.412649 0.000001 -0.000002 0.000002 0.000002 0.000000 
6.814681 76.111549 2.683423 -5.769571 -13.601146 -7.439819 0.230844 -0.383779 1.257833 0.701954 0.432091 5.667751 0.693727 0.944024 5.569277 6.840222 -2.422807 -2.045726 25.636671 -11.115837 2.651719 -0.000000 -0.000003 0.000001 0.473751 -11.748236 -10.826579 49.855876 -16.321920 -58.942962 -49.720427 -82.735325 -50.404040 7.362439 -32.046189 34.503708 -35.388385 6.310046 20.284294 -0.303275 18.823165 -10.565154 -3.138289 9.292931 3.593851 -0.000002 0.000000 -0.000003 1.092044 -16.544303 -12.803834 -0.599739 1.826435 -15.662341 -0.568825 0.391862 -11.449502 0.000001 0.000001 -0.000000 -0.199820 -3.745552 -8.870477 -0.288318 2.255393 -21.224091 -0.128567 0.953815 -11.471561 -0.000001 -0.000002 -0.000000 0.442665 0.613399 -10.800127 0.028229 1.268119 -14.472843 0.145199 0.444870 -1.021976 0.000000 0.000000 -0.000003 0.616412 9.968277 -6.657930 -0.198594 0.549730 -11.126327 -0.048247 1.098211 -5.389492 0.000001 -0.000001 -0.000001 0.544585 4.353657 14.830081 59.428417 1.459767 39.157515 -110.721635 84.056556 111.070897 -2.059871 31.467665 -31.472754 -12.904520 -10.397726 -22.018409 -1.134414 -13.310399 13.783007 -4.121052 -2.390106 -1.694907 -0.000001 0.000002 0.000004 7.404517 12.010643 28.859298 0.041770 -1.254997 10.092332 -0.465590 0.459830 22.622654 0.000001 0.000000 -0.000001 -0.149196 2.981331 19.978433 -0.496552 -1.946065 20.260441 -0.337635 -0.792346 15.166512 -0.000000 -0.000000 0.000002 0.733030 -2.769605 9.774166 0.498708 -1.495217 29.065607 -0.319888 0.981986 8.180376 -0.000001 0.000000 -0.000002 -3.263030 -11.932627 -6.184439 -0.956078 -0.830210 19.541161 -0.715601 1.888786 6.607638 0.000000 -0.000000 0.000001 -13.624698 15.043025 12.636024 36.459796 10.925758 -0.335407 -17.772796 15.438606 -4.801434 -1.996893 0.000001 -0.000004 -0.000000 -0.000003 -0.000000 7.918186 -3.106252 12.885162 4.602083 9.602525 3.666023 -7.986774 -16.282124 -14.022134 -2.541425 0.000008 -0.000003 0.000001 -0.000001 0.000001 
